<?xml version="1.0" encoding="UTF-8" standalone="no"?>
<svg
   width="108mm"
   height="108mm"
   viewBox="0 0 108 108"
   version="1.1"
   id="svg8"
   inkscape:version="1.3 (0e150ed6c4, 2023-07-21)"
   sodipodi:docname="logo_monochrome.svg"
   xml:space="preserve"
   xmlns:inkscape="http://www.inkscape.org/namespaces/inkscape"
   xmlns:sodipodi="http://sodipodi.sourceforge.net/DTD/sodipodi-0.dtd"
   xmlns="http://www.w3.org/2000/svg"
   xmlns:svg="http://www.w3.org/2000/svg"
   xmlns:rdf="http://www.w3.org/1999/02/22-rdf-syntax-ns#"
   xmlns:cc="http://creativecommons.org/ns#"
   xmlns:dc="http://purl.org/dc/elements/1.1/"><defs
     id="defs2"><clipPath
       id="clipPath866"
       clipPathUnits="userSpaceOnUse"><rect
         y="126.67619"
         x="25.068464"
         height="23.820259"
         width="24.219631"
         id="rect868"
         style="fill:#ffffff;fill-opacity:1;stroke:none;stroke-width:1.465;stroke-linejoin:round;paint-order:stroke fill markers" /></clipPath><clipPath
       id="clipPath870"
       clipPathUnits="userSpaceOnUse"><rect
         y="126.67619"
         x="25.068464"
         height="23.820259"
         width="24.219631"
         id="rect872"
         style="fill:#ffffff;fill-opacity:1;stroke:none;stroke-width:1.465;stroke-linejoin:round;paint-order:stroke fill markers" /></clipPath><clipPath
       id="clipPath874"
       clipPathUnits="userSpaceOnUse"><rect
         y="126.67619"
         x="25.068464"
         height="23.820259"
         width="24.219631"
         id="rect876"
         style="fill:#ffffff;fill-opacity:1;stroke:none;stroke-width:1.465;stroke-linejoin:round;paint-order:stroke fill markers" /></clipPath><clipPath
       id="clipPath878"
       clipPathUnits="userSpaceOnUse"><rect
         y="126.67619"
         x="25.068464"
         height="23.820259"
         width="24.219631"
         id="rect880"
         style="fill:#ffffff;fill-opacity:1;stroke:none;stroke-width:1.465;stroke-linejoin:round;paint-order:stroke fill markers" /></clipPath><clipPath
       id="clipPath882"
       clipPathUnits="userSpaceOnUse"><rect
         y="126.67619"
         x="25.068464"
         height="23.820259"
         width="24.219631"
         id="rect884"
         style="fill:#ffffff;fill-opacity:1;stroke:none;stroke-width:1.465;stroke-linejoin:round;paint-order:stroke fill markers" /></clipPath><linearGradient
       gradientUnits="userSpaceOnUse"
       id="SVGID_1_"
       x1="28.7554"
       x2="82.789497"
       y1="81.535202"
       y2="9.2979002"><stop
         style="stop-color:#FBB22F"
         id="stop2"
         offset="0" /><stop
         style="stop-color:#F58820"
         id="stop4"
         offset="1" /></linearGradient></defs><sodipodi:namedview
     id="base"
     pagecolor="#ffffff"
     bordercolor="#666666"
     borderopacity="1.0"
     inkscape:pageopacity="0.0"
     inkscape:pageshadow="2"
     inkscape:zoom="1.979899"
     inkscape:cx="326.53181"
     inkscape:cy="196.97975"
     inkscape:document-units="mm"
     inkscape:current-layer="layer1"
     showgrid="false"
     inkscape:window-width="2560"
     inkscape:window-height="1403"
     inkscape:window-x="0"
     inkscape:window-y="0"
     inkscape:window-maximized="1"
     fit-margin-top="0"
     fit-margin-left="0"
     fit-margin-right="0"
     fit-margin-bottom="0"
     inkscape:document-rotation="0"
     inkscape:showpageshadow="2"
     inkscape:pagecheckerboard="0"
     inkscape:deskcolor="#d1d1d1" /><metadata
     id="metadata5"><rdf:RDF><cc:Work
         rdf:about=""><dc:format>image/svg+xml</dc:format><dc:type
           rdf:resource="http://purl.org/dc/dcmitype/StillImage" /><dc:title /></cc:Work></rdf:RDF></metadata><g
     inkscape:label="Layer 1"
     inkscape:groupmode="layer"
     id="layer1"
     transform="translate(-24.850801,-126.30745)"><path
       id="path3-0"
       style="color:#000000;fill:#000000;stroke:none;stroke-width:1.82824;stroke-dasharray:none"
       d="m 111.05182,141.99367 c -3.2588,-0.77189 -6.04462,1.58123 -8.95998,2.65405 -19.467952,8.89413 -38.955422,17.74707 -58.411162,26.66699 -3.73453,1.34451 -3.45208,7.05247 0.44395,7.93067 8.30556,1.88374 16.69186,3.44391 25.02919,5.20032 2.68747,1.14635 2.40738,4.35214 3.22201,6.69752 1.64481,6.45264 3.09497,12.9627 4.86777,19.3776 1.12738,3.79398 6.80334,3.87572 8.17924,0.21314 9.42893,-20.89949 18.839252,-41.80965 28.210222,-62.73505 1.00745,-2.31665 -0.0169,-5.31472 -2.58124,-6.00524 z m -0.81719,2.57483 c 2.17537,1.3044 0.004,3.78121 -0.55678,5.50095 -8.85171,19.6825 -17.703412,39.36499 -26.555112,59.04749 -1.72051,3.77328 -3.99127,-0.18287 -4.07268,-2.51394 -1.82604,-7.18149 -3.45439,-14.42274 -5.40659,-21.56608 -1.28551,-2.73201 -4.25114,-3.43903 -6.94464,-3.85103 -7.20369,-1.50375 -14.43479,-2.89097 -21.62093,-4.46935 -3.27761,-1.62508 0.74011,-3.59666 2.56508,-4.23415 20.16375,-9.19905 40.32751,-18.3981 60.491262,-27.59715 0.64313,-0.29857 1.39116,-0.52877 2.10039,-0.31674 z m 0.44366,0.41935 c -22.211522,10.13442 -44.423482,20.2679 -66.635172,30.40195 8.93076,1.8718 17.90505,3.57057 26.80836,5.55152 3.07359,0.93341 4.29104,4.07375 4.78403,6.94989 1.8612,7.5344 3.7224,15.06879 5.5836,22.60318 9.81973,-21.83551 19.639452,-43.67103 29.459182,-65.50654 z m -3.54304,3.54273 c -8.541402,19.33217 -17.082802,38.66433 -25.624202,57.9965 -1.73445,-7.388 -3.27179,-14.82853 -5.13609,-22.18195 -0.90853,-3.45122 -4.34288,-5.11968 -7.635,-5.42751 -6.87969,-1.28505 -13.75939,-2.57011 -20.63909,-3.85516 19.67813,-8.84396 39.35626,-17.68792 59.034382,-26.53188 z m 3.33363,-4.70907 c -2.53066,-0.3572 -4.66964,1.50258 -6.96581,2.31133 -19.617382,8.95951 -39.249912,17.88704 -58.857832,26.86655 -3.26808,1.32877 -1.02149,5.14067 1.83994,4.84995 7.86275,1.64854 15.76552,3.14349 23.603,4.88897 2.90336,1.07075 3.30151,4.19391 3.91723,6.78058 1.70862,6.7605 3.27019,13.56423 5.07298,20.29706 1.04313,3.07718 4.72429,1.42124 5.1177,-1.12861 9.18562,-20.4498 18.408632,-40.88352 27.570892,-61.34337 0.56509,-1.29123 0.23535,-3.10922 -1.2981,-3.52246 z m -1.40831,2.78101 c -9.187142,20.48762 -18.417452,40.95938 -27.621192,61.4409 -2.00143,-7.88685 -3.80424,-15.83314 -5.93203,-23.68218 -1.22731,-3.24071 -4.64541,-4.51998 -7.8117,-4.93172 -7.04634,-1.44113 -14.09267,-2.88226 -21.13901,-4.32339 20.83577,-9.49827 41.66256,-19.02 62.503932,-28.50361 z m 11.00923,-30.36526 c -38.178867,14.31912 -76.357825,28.63797 -114.5366829,42.95707 0.9638347,2.65069 1.9274616,5.3018 2.8912964,7.95249 15.4071175,-5.7785 30.8143515,-11.55687 46.2214685,-17.33538 5.596009,2.94195 11.192067,5.88391 16.788122,8.82582 3.370858,-1.53713 6.739482,-3.07893 10.110494,-4.61574 -5.290794,-2.78192 -10.58163,-5.56381 -15.872416,-8.34574 19.096318,-7.16216 38.192688,-14.3244 57.289008,-21.48655 -0.96383,-2.65067 -1.92747,-5.30128 -2.89129,-7.95197 z m -15.02751,50.13958 c -1.20225,2.67751 -2.40217,5.35603 -3.60547,8.0331 4.12879,2.17055 8.25757,4.34117 12.38633,6.51175 -21.69145,25.2006 -43.383138,50.4015 -65.074583,75.6021 2.113466,1.88327 4.227232,3.76652 6.340698,5.64979 22.149246,-25.73211 44.298891,-51.46422 66.448145,-77.19633 12.84374,6.75226 25.68775,13.5044 38.53149,20.25665 1.32133,-2.61328 2.64226,-5.22656 3.96359,-7.83983 -19.66335,-10.33912 -39.32681,-20.67817 -58.9902,-31.01723 z" /></g></svg>
